<?xml version="1.0" encoding="utf-8"?>
<!-- Generator: Adobe Illustrator 24.1.0, SVG Export Plug-In . SVG Version: 6.00 Build 0)  -->
<svg version="1.1" id="png"
    xmlns="http://www.w3.org/2000/svg"
    xmlns:xlink="http://www.w3.org/1999/xlink" x="0px" y="0px" viewBox="0 0 405 80" style="enable-background:new 0 0 405 80;" xml:space="preserve">
    <style type="text/css">
        .st0{fill:#EEEEEE;}
		.st1{fill:#999999;}
		.st2{fill:#555555;}
    </style>
	<path class="st0" d="m 349.23741,34.132399 q -5.19356,-2.856399 -8.70666,-0.400897 -3.46231,2.455499 -6.67003,10.924471 -3.15671,8.468973 -4.63328,14.883343 -1.42576,6.414367 -0.40737,8.869871 1.0693,2.455497 3.46236,1.052359 4.88786,-3.106961 8.75744,-11.425597 3.92052,-8.368749 8.19754,-23.90355 z M 365.93787,2.9625694 346.13164,70.664238 q 3.00399,-2.355276 6.26271,-6.765154 1.12009,-1.653704 2.59663,-0.701572 l 2.495,1.653705 q 1.68008,1.102466 0.50916,2.555725 -4.27705,4.911008 -7.89217,7.667176 -3.56398,2.706066 -8.45215,3.808527 -1.47648,0.300681 -1.88386,-1.102461 l -1.98569,-5.662688 q -2.08748,2.856395 -4.42963,4.760658 -2.34212,1.904275 -3.81876,1.904275 h -0.20374 q -1.98562,0 -5.29509,-3.357528 -3.25872,-3.407633 -3.36068,-7.316387 -0.10162,-8.017965 4.58236,-20.846703 4.7353,-12.82874 8.80865,-16.787608 4.12419,-4.00898 10.18326,-3.908756 3.46229,0 6.56829,1.854154 l 6.97536,-25.5572561 q 0.66207,-2.25505192 3.15691,-2.25505192 h 2.69857 q 3.00412,0 2.2911,2.35527642 z" />
	<path class="st0" d="m 285.99464,63.598412 q 0.45822,-13.730763 6.9755,-26.008265 6.51727,-12.277506 16.59881,-12.077057 5.24427,0.300673 8.14641,5.16156 2.18957,3.357524 1.78223,11.375486 -0.40737,15.184014 -8.45214,28.112982 -5.54977,9.471217 -14.91844,9.120434 -3.30966,-0.100291 -6.16091,-2.856405 -4.27701,-4.008983 -3.97146,-12.828735 z m 17.76978,4.109204 q 7.07742,-10.974587 7.48455,-24.555011 0.10168,-6.01347 -0.66188,-8.068076 -0.71283,-2.0546 -3.05488,-2.104712 -2.34233,-0.05011 -4.27691,2.154827 -1.93482,2.204939 -3.76789,6.113696 -4.63335,9.120431 -5.04063,21.347827 -0.20373,9.22066 3.25863,9.521329 3.00399,0.100289 6.05901,-4.40988 z" />
	<path class="st0" d="m 230.64366,29.020949 q 0.50925,-1.954381 0.91659,-2.305166 0.4583,-0.350787 1.17101,-0.350787 h 4.27692 q 2.5967,0 1.6803,2.956626 l -7.84106,25.857928 10.8452,-17.639517 q 3.15678,-5.161563 6.97553,-8.168299 3.86961,-3.006738 6.36446,-3.006738 h 2.18935 q 1.68019,0 2.59671,0.551236 0.96743,0.551236 1.52759,2.505614 0.61077,1.954379 -0.56016,5.76291 l -5.29528,19.192995 9.97973,-16.937943 q 3.25866,-5.56246 6.97554,-8.318635 3.76762,-2.756177 6.36442,-2.756177 h 2.18937 q 1.68015,0 2.59673,0.551236 0.96742,0.551236 1.52755,2.505614 0.56008,1.954379 -0.56013,5.76291 l -11.65992,41.843738 q -0.35635,1.453256 -1.68016,1.453256 h -5.4481 q -1.52747,0 -0.81459,-2.455501 l 10.94705,-35.228921 q 0.81464,-2.756172 0.81464,-3.608081 0,-0.902022 -0.71291,-0.902022 -0.71283,0 -1.73125,0.952134 -0.96713,0.902021 -2.64753,3.357523 -1.98561,2.806285 -4.32785,6.564707 -2.34215,3.708305 -6.16077,9.57144 -3.81877,5.863138 -5.04086,7.917738 -4.68419,7.466729 -6.9755,12.377727 -0.66197,1.453256 -1.78198,1.453256 h -5.34632 q -1.52754,0 -0.81458,-2.455501 l 10.94699,-35.228921 q 0.81469,-2.756172 0.81469,-3.608081 0,-0.902022 -0.71291,-0.902022 -0.71281,0 -1.73126,0.952134 -0.96717,0.902021 -2.64755,3.357523 -1.98563,2.806285 -4.78604,7.266276 -2.80037,4.459993 -7.07738,11.0247 -8.04468,12.077053 -11.40532,18.140636 -0.81454,1.453256 -2.49478,1.453256 h -2.90233 q -0.61091,0 -1.01817,-0.801792 -0.45831,-0.851906 -0.15279,-1.854151 z" />
	<path class="st0" d="m 218.62262,28.519826 -12.62723,47.706875 q -0.61121,2.255049 -3.10588,2.255049 h -3.05503 q -2.90215,0 -2.29126,-2.355274 l 12.72915,-47.706875 q 0.50912,-2.054605 2.90212,-2.054605 h 3.46247 q 1.3747,0 1.83285,0.45101 0.45834,0.451013 0.15281,1.70382 z" />
	<path class="st0" d="m 216.73874,10.729972 h 0.96724 q 1.73125,0 3.20786,1.553479 1.47654,1.553481 1.47654,3.557972 0,2.00449 -1.52749,3.457747 -1.52748,1.403142 -3.81877,1.403142 h -0.81443 q -1.7823,0 -3.20796,-1.453256 -1.37475,-1.503367 -1.37475,-3.507858 0,-2.00449 1.42584,-3.507859 1.47646,-1.503367 3.66592,-1.503367 z" />
	<path class="st0" d="m 188.11873,34.132399 q -5.19342,-2.856399 -8.70645,-0.400897 -3.46224,2.455499 -6.67013,10.924471 -3.15677,8.468973 -4.63336,14.883343 -1.42562,6.414367 -0.4073,8.869871 1.06917,2.455497 3.46227,1.052359 4.88794,-3.106961 8.75773,-11.425597 3.92046,-8.368749 8.19724,-23.90355 z M 204.81944,2.9625694 185.01293,70.664238 q 3.00414,-2.355276 6.26269,-6.765154 1.12025,-1.653704 2.59679,-0.701572 l 2.49493,1.653705 q 1.68013,1.102466 0.50909,2.555725 -4.27678,4.911008 -7.89211,7.667176 -3.56405,2.706066 -8.45191,3.808527 -1.47655,0.300681 -1.88392,-1.102461 l -1.9859,-5.662688 q -2.08737,2.856395 -4.42965,4.760658 -2.34198,1.904275 -3.81873,1.904275 h -0.2035 q -1.98578,0 -5.29539,-3.357528 -3.25867,-3.407633 -3.36038,-7.316387 -0.10096,-8.017965 4.58239,-20.846703 4.7352,-12.82874 8.80853,-16.787608 4.12416,-4.00898 10.1832,-3.908756 3.46223,0 6.56823,1.854154 l 6.97554,-25.5572561 q 0.66189,-2.25505192 3.1568,-2.25505192 h 2.69855 q 3.00401,0 2.29126,2.35527642 z" />
	<path class="st0" d="m 134.65188,64.299981 q -1.42556,7.516846 2.85134,8.318638 3.81869,-1.403142 9.47043,-7.667181 0.96733,-0.851905 2.08755,-0.200445 l 1.98578,1.20269 q 1.37468,1.052361 0.91658,2.255055 -1.98594,3.708304 -7.33212,7.867625 -5.34611,4.159317 -8.60475,3.557972 -7.38295,-1.854151 -8.65584,-7.617067 -1.47648,-7.717287 2.59679,-21.197485 4.07335,-13.4802 11.35427,-20.34558 2.54572,-2.305163 6.31384,-3.407635 3.8186,-1.152581 8.04457,0.601349 4.226,1.753929 4.17516,10.022452 -0.0504,8.268522 -7.38283,15.635028 -7.28101,7.316389 -17.82077,10.974584 z m 1.27294,-6.664932 q 4.88786,-2.054602 8.35012,-4.810776 3.51337,-2.756175 5.75378,-6.715043 2.29123,-3.95887 2.29123,-8.118186 0,-4.15932 -2.44416,-4.15932 -4.78599,0 -8.40128,7.717289 -3.56394,7.667175 -5.54969,16.086036 z" />
	<path class="st0" d="m 116.11359,40.095758 q 3.30953,-5.311902 6.10996,-8.819758 2.85104,-3.50786 4.12405,-4.359768 1.32386,-0.902018 4.58244,-0.902018 h 1.01842 q 3.05477,0 2.08772,2.305163 -0.50924,1.202694 -2.54587,3.006735 -2.03673,1.804042 -5.55009,6.163808 -3.46235,4.359768 -3.46235,5.662685 0,2.706063 2.59672,5.061338 0.6112,0.501124 0.35655,1.102472 -0.25451,0.551234 -1.06915,0.751683 l -3.97163,0.701572 q -1.68019,0.300673 -2.59666,-0.350785 -0.86565,-0.65146 -3.05495,-4.660441 l -7.99386,30.468257 q -0.66186,2.255049 -3.15684,2.255049 h -3.00404 q -2.953153,0 -2.291163,-2.355274 L 111.02178,28.419601 q 0.50924,-2.054605 2.90248,-2.054605 h 3.2076 q 1.37478,0 1.83293,0.45101 0.45833,0.451013 0.15278,1.70382 z" />
	<path class="st0" d="m 101.85211,32.077793 q 1.68018,1.753931 0.40726,3.207187 l -1.73115,1.954379 q -1.782093,1.954378 -3.156813,0.501124 l -1.120153,-1.252809 q -3.767791,-3.758417 -5.957198,-3.257295 -3.767813,0.701568 -7.942935,7.917736 -4.17513,7.166055 -6.008121,14.83323 -1.782069,7.617067 -0.865571,12.728516 0.20366,1.252807 1.934812,2.305162 1.731171,1.002245 2.647655,0.801804 3.156802,-1.653709 6.975527,-6.163815 1.171066,-1.553479 3.360462,-0.200449 l 1.578395,1.002248 q 3.309565,1.954376 -5.651676,9.070313 -3.767823,3.157079 -5.855381,3.708311 -2.08758,0.601353 -6.313606,-1.503365 -4.175153,-2.104716 -5.142539,-4.159319 -2.902254,-6.264034 -0.101793,-17.789855 2.800384,-11.575933 6.873683,-17.689627 4.073311,-6.113697 7.99386,-9.27077 3.920523,-3.207185 8.45208,-2.756176 4.531546,0.4009 9.623222,6.01347 z" />
	<path class="st0" d="m 37.336256,55.17955 10.84516,-17.639517 q 3.462306,-5.562461 7.077342,-8.368748 3.665989,-2.806289 6.262715,-2.806289 h 2.189403 q 1.680227,0 2.596734,0.551236 0.9674,0.551236 1.527472,2.505614 0.611005,1.954379 -0.560072,5.76291 L 55.615202,77.028494 q -0.305507,1.453256 -1.680248,1.453256 h -5.448033 q -1.527487,0 -0.814664,-2.455501 L 58.619254,40.797328 q 0.814654,-2.756172 0.814654,-3.608081 0,-0.902022 -0.712824,-0.902022 -0.71283,0 -1.731157,0.952134 -0.967397,0.902021 -2.647646,3.357523 -1.98573,2.806285 -4.786132,7.266276 -2.800386,4.459993 -7.077356,11.0247 -8.044771,12.077053 -11.405231,18.140636 -0.814665,1.453256 -2.494887,1.453256 h -2.902252 q -0.610991,0 -1.018318,-0.801792 -0.458243,-0.851906 -0.152751,-1.854151 L 37.132585,29.020949 q 0.509173,-2.655953 2.087585,-2.655953 h 4.276959 q 2.49488,0 1.680231,2.956626 z" />
	<path class="st0" d="M 20.478088,6.4203154 Q 21.089082,4.1652635 23.58397,4.1652635 h 3.054971 q 1.221993,0 1.782056,0.952133 0.611014,0.9020205 0.254593,2.2550517 L 10.854912,76.226701 Q 10.243924,78.48175 7.749017,78.48175 H 4.6940447 q -1.2219928,0 -1.7820749,-0.902019 -0.6109841,-0.952132 -0.3054925,-2.255046 z" />
	<path class="st1" d="m 387.27,5.51 -12.61,1.71 a 0.24,0.24 0 0 0 -0.21,0.24 l -0.06,8.83 a 3,3 0 0 0 -0.68,-0.08 3,3 0 0 0 -2.94,2.92 2.94,2.94 0 0 0 2.92,3 v 0 a 3,3 0 0 0 2.94,-2.92 l 0.06,-8.19 8.53,-1.08 v 4.66 a 3.09,3.09 0 0 0 -0.68,-0.08 2.94,2.94 0 1 0 2.94,3 l 0.08,-11.7 a 0.24,0.24 0 0 0 -0.27,-0.24" />
	<path class="st2" d="m 403.52,0.48 a 0.24,0.24 0 0 0 -0.19,-0.06 l -8.52,1.16 a 0.24,0.24 0 0 0 -0.21,0.23 v 5.87 a 2.17,2.17 0 0 0 -0.38,0 2.065,2.065 0 0 0 0,4.13 v 0 a 2.07,2.07 0 0 0 2.06,-2.05 V 4.3 l 5.6,-0.71 v 3 a 2.16,2.16 0 0 0 -0.38,0 2.06,2.06 0 1 0 2.06,2.08 l 0.05,-7.9 a 0.24,0.24 0 0 0 -0.08,-0.18 m -9.34,11.06 z" />
</svg>